<?xml version="1.0"?>
<svg xmlns="http://www.w3.org/2000/svg" xmlns:xlink="http://www.w3.org/1999/xlink" xmlns:svgjs="http://svgjs.com/svgjs" version="1.1" width="512" height="512" x="0" y="0" viewBox="0 0 512 512" style="enable-background:new 0 0 512 512" xml:space="preserve" class=""><g>
<g xmlns="http://www.w3.org/2000/svg">
	<g>
		<path d="M256,0C115.39,0,0,115.39,0,256s115.39,256,256,256s256-115.39,256-256S396.61,0,256,0z M256,60    c88.436,0,164.196,60.235,187.989,141.072c-1.362-3.468-3.957-6.464-7.604-8.148C395.047,173.793,329.374,151,256,151    s-139.047,22.793-180.385,41.924c-3.647,1.685-6.242,4.68-7.604,8.148C91.804,120.235,167.564,60,256,60z M63.875,294.622    c1.503,5.636,6.232,10.115,12.37,10.992l36.039,5.01c45.894,6.548,82.544,43.198,89.092,89.092l5.01,36.039    c0.76,5.317,4.281,9.474,8.857,11.494C139.75,431.055,79.175,370.445,63.875,294.622z M256,301c-24.814,0-45-20.186-45-45    c0-24.814,20.186-45,45-45c24.814,0,45,20.186,45,45C301,280.814,280.814,301,256,301z M296.757,447.248    c4.576-2.02,8.097-6.176,8.857-11.494l5.01-36.039c6.548-45.894,43.198-82.544,89.092-89.092l36.039-5.01    c6.138-0.877,10.867-5.356,12.371-10.992C432.825,370.445,372.25,431.055,296.757,447.248z" fill="#fecb10" data-original="#000000" style="" class=""/>
	</g>
</g>
<g xmlns="http://www.w3.org/2000/svg">
	<g>
		<path d="M256,241c-8.276,0-15,6.724-15,15s6.724,15,15,15s15-6.724,15-15S264.276,241,256,241z" fill="#fecb10" data-original="#000000" style="" class=""/>
	</g>
</g>
<g xmlns="http://www.w3.org/2000/svg">
</g>
<g xmlns="http://www.w3.org/2000/svg">
</g>
<g xmlns="http://www.w3.org/2000/svg">
</g>
<g xmlns="http://www.w3.org/2000/svg">
</g>
<g xmlns="http://www.w3.org/2000/svg">
</g>
<g xmlns="http://www.w3.org/2000/svg">
</g>
<g xmlns="http://www.w3.org/2000/svg">
</g>
<g xmlns="http://www.w3.org/2000/svg">
</g>
<g xmlns="http://www.w3.org/2000/svg">
</g>
<g xmlns="http://www.w3.org/2000/svg">
</g>
<g xmlns="http://www.w3.org/2000/svg">
</g>
<g xmlns="http://www.w3.org/2000/svg">
</g>
<g xmlns="http://www.w3.org/2000/svg">
</g>
<g xmlns="http://www.w3.org/2000/svg">
</g>
<g xmlns="http://www.w3.org/2000/svg">
</g>
</g></svg>
